<svg width="111" height="111" viewBox="0 0 111 111" fill="none" xmlns="http://www.w3.org/2000/svg">
<path d="M13.32 83.4998C19.6849 55.3369 33.2843 29.3209 52.7759 8.01977C53.1224 7.64271 53.5435 7.34171 54.0124 7.13581C54.4813 6.92991 54.9879 6.82359 55.5 6.82359C56.0121 6.82359 56.5187 6.92991 56.9876 7.13581C57.4565 7.34171 57.8776 7.64271 58.2241 8.01977C58.9919 8.85227 59.6301 9.55527 60.1342 10.1241C78.6184 31.0378 91.5316 56.274 97.68 83.4998C87.7779 85.5856 77.6075 86.9546 67.229 87.542L57.5674 106.865C57.3751 107.249 57.0799 107.571 56.7148 107.797C56.3497 108.022 55.9291 108.142 55.5 108.142C55.0709 108.142 54.6503 108.022 54.2852 107.797C53.9201 107.571 53.6249 107.249 53.4326 106.865L43.771 87.542C33.5334 86.9634 23.3541 85.6121 13.32 83.4998ZM44.2983 78.3059L49.6494 78.6111L55.5 90.3124L61.3506 78.6111L66.7017 78.3059C73.2496 77.9354 79.7745 77.2346 86.2516 76.2061C80.1153 55.1711 69.6397 35.6552 55.5 18.9163C41.3603 35.6552 30.8847 55.1711 24.7484 76.2061C31.2002 77.2329 37.7215 77.9359 44.2983 78.3059ZM55.5 69.375C51.8201 69.375 48.291 67.9132 45.6889 65.3111C43.0868 62.7091 41.625 59.1799 41.625 55.5C41.625 51.8201 43.0868 48.291 45.6889 45.6889C48.291 43.0868 51.8201 41.625 55.5 41.625C59.1799 41.625 62.709 43.0868 65.3111 45.6889C67.9132 48.291 69.375 51.8201 69.375 55.5C69.375 59.1799 67.9132 62.7091 65.3111 65.3111C62.709 67.9132 59.1799 69.375 55.5 69.375ZM55.5 60.125C56.7266 60.125 57.903 59.6377 58.7704 58.7704C59.6377 57.903 60.125 56.7266 60.125 55.5C60.125 54.2734 59.6377 53.097 58.7704 52.2296C57.903 51.3623 56.7266 50.875 55.5 50.875C54.2734 50.875 53.097 51.3623 52.2296 52.2296C51.3623 53.097 50.875 54.2734 50.875 55.5C50.875 56.7266 51.3623 57.903 52.2296 58.7704C53.097 59.6377 54.2734 60.125 55.5 60.125Z" fill="white"/>
</svg>
