<svg width="111" height="111" viewBox="0 0 111 111" fill="none" xmlns="http://www.w3.org/2000/svg">
<path d="M42.5038 29.3688C33.0688 39.96 26.5938 55.1763 25.9925 56.61L15.54 52.1238C12.5338 50.8288 11.7938 46.8975 14.1063 44.585L28.0275 30.6638C30.2013 28.49 33.3463 27.5188 36.3988 28.12L42.5038 29.3688ZM49.395 76.3588C50.7825 77.7463 52.8175 78.1163 54.575 77.2838C59.94 74.7863 71.4563 68.9125 78.9025 61.4663C100.131 40.2375 100.316 22.94 99.0675 15.54C98.9038 14.631 98.4661 13.7939 97.813 13.1408C97.1599 12.4877 96.3227 12.05 95.4138 11.8863C88.0138 10.6375 70.7163 10.8225 49.4875 32.0513C42.0413 39.4975 36.2138 51.0138 33.67 56.3788C32.8375 58.1363 33.2538 60.2175 34.595 61.5588L49.395 76.3588ZM81.6313 68.4963C71.04 77.9313 55.8238 84.4063 54.39 85.0075L58.8763 95.46C60.1713 98.4663 64.1025 99.2063 66.415 96.8938L80.3363 82.9725C82.51 80.7988 83.4813 77.6538 82.88 74.6013L81.6313 68.4963ZM41.3475 80.5213C41.796 82.7612 41.6845 85.0772 41.0229 87.2637C40.3613 89.4502 39.1701 91.4395 37.555 93.055C33.9938 96.6163 22.94 99.2525 15.7713 100.64C12.58 101.241 9.75875 98.42 10.36 95.2288C11.7475 88.06 14.3375 77.0063 17.945 73.445C19.5605 71.8299 21.5498 70.6387 23.7363 69.9771C25.9228 69.3155 28.2388 69.204 30.4788 69.6525C35.89 70.67 40.33 75.11 41.3475 80.5213ZM60.125 41.625C60.125 36.5375 64.2875 32.375 69.375 32.375C74.4625 32.375 78.625 36.5375 78.625 41.625C78.625 46.7125 74.4625 50.875 69.375 50.875C64.2875 50.875 60.125 46.7125 60.125 41.625Z" fill="white"/>
</svg>
