<svg width="111" height="111" viewBox="0 0 111 111" fill="none" xmlns="http://www.w3.org/2000/svg">
<path d="M9.25 50.875L18.7313 51.3375C19.2916 46.2752 20.8962 41.3843 23.4437 36.9739C25.9912 32.5636 29.4261 28.7298 33.5312 25.715L28.3512 17.76C27.1025 15.54 27.75 12.7188 30.0625 11.4238C32.375 10.175 35.1038 10.915 36.3988 13.135L40.7 21.5525C45.3753 19.5426 50.411 18.506 55.5 18.506C60.589 18.506 65.6247 19.5426 70.3 21.5525L74.6012 13.135C75.8962 10.915 78.625 10.175 80.9375 11.4238C83.25 12.7188 83.8975 15.54 82.6488 17.76L77.4688 25.715C81.5739 28.7298 85.0088 32.5636 87.5563 36.9739C90.1038 41.3843 91.7084 46.2752 92.2688 51.3375L101.75 50.875C102.977 50.875 104.153 51.3623 105.02 52.2297C105.888 53.097 106.375 54.2734 106.375 55.5C106.375 56.7267 105.888 57.903 105.02 58.7704C104.153 59.6378 102.977 60.125 101.75 60.125L92.2688 59.6625C91.7084 64.7248 90.1038 69.6158 87.5563 74.0261C85.0088 78.4365 81.5739 82.2703 77.4688 85.285L82.6488 93.24C83.8975 95.46 83.25 98.2813 80.9375 99.5763C78.625 100.825 75.8962 100.085 74.6012 97.865L70.3 89.4475C65.6247 91.4575 60.589 92.4941 55.5 92.4941C50.411 92.4941 45.3753 91.4575 40.7 89.4475L36.3988 97.865C35.1038 100.085 32.375 100.825 30.0625 99.5763C27.75 98.2813 27.1025 95.46 28.3512 93.24L33.5312 85.285C29.4261 82.2703 25.9912 78.4365 23.4437 74.0261C20.8962 69.6158 19.2916 64.7248 18.7313 59.6625L9.25 60.125C8.02337 60.125 6.84699 59.6378 5.97963 58.7704C5.11228 57.903 4.625 56.7267 4.625 55.5C4.625 54.2734 5.11228 53.097 5.97963 52.2297C6.84699 51.3623 8.02337 50.875 9.25 50.875ZM41.9487 52.4938C42.55 49.6725 44.0762 47.175 46.25 45.2788L38.5725 33.5313C32.7698 37.9848 28.9628 44.5515 27.9813 51.8L41.9487 52.4938ZM55.5 41.625C56.98 41.625 58.3675 41.8563 59.6625 42.2725L66.045 29.8313C62.8075 28.49 59.2463 27.75 55.5 27.75C51.7537 27.75 48.1925 28.49 44.955 29.8313L51.3375 42.2725C52.6325 41.8563 54.02 41.625 55.5 41.625ZM69.0513 52.4938L83.0188 51.8C82.0372 44.5515 78.2302 37.9848 72.4275 33.5313L64.75 45.2788C66.9238 47.175 68.45 49.6725 69.0513 52.4938ZM69.0513 58.5063C68.45 61.3275 66.9238 63.825 64.75 65.7213L72.4275 77.4688C78.2302 73.0153 82.0372 66.4486 83.0188 59.2L69.0513 58.5063ZM55.5 69.375C54.02 69.375 52.6325 69.1438 51.2913 68.7275L44.955 81.1688C48.1925 82.51 51.7537 83.25 55.5 83.25C59.2463 83.25 62.8075 82.51 66.045 81.1688L59.7087 68.7275C58.3675 69.1438 56.98 69.375 55.5 69.375ZM41.9487 58.5063L27.9813 59.2C28.9988 66.6 32.8838 73.1213 38.5725 77.4688L46.25 65.7213C44.0762 63.825 42.55 61.3275 41.9487 58.5063Z" fill="white"/>
</svg>
